<?xml version="1.0" encoding="UTF-8" standalone="no"?>
<svg xmlns="http://www.w3.org/2000/svg" height="45px" width="150px" version="1.1" xmlns:xlink="http://www.w3.org/1999/xlink" viewBox="0 0 150 45">
 <title>logo</title>
 <desc>Qdos logo</desc>
 <g id="Page-1" fill-rule="evenodd" fill="none">
  <path id="logo" fill="#1A1918" d="m21.461 25.948v15.966c0 0.126-0.024 0.249-0.071 0.363-0.228 1.434-1.465 2.517-2.941 2.517-0.799 0-1.55-0.311-2.114-0.875v-0.001c-0.474-0.474-0.773-1.09-0.854-1.751-0.023-0.081-0.035-0.166-0.035-0.253v-15.965c0-0.092 0.013-0.182 0.038-0.268 0.197-1.476 1.461-2.606 2.964-2.606 0.792 0 1.539 0.31 2.101 0.874 0.445 0.445 0.737 1.016 0.839 1.631 0.047 0.114 0.073 0.238 0.073 0.368zm9.918-20.525c3.563 3.567 5.526 8.2961 5.526 13.317 0 6.771-3.366 12.808-9.005 16.154l-0.091 0.061c-0.022 0.016-0.045 0.03-0.068 0.043-0.482 0.273-1.009 0.418-1.525 0.418-0.8 0-1.553-0.312-2.12-0.879-0.567-0.568-0.879-1.322-0.879-2.124 0-0.959 0.477-1.863 1.261-2.422 0.059-0.067 0.129-0.126 0.208-0.174 3.839-2.326 6.131-6.468 6.131-11.078 0-3.607-1.326-6.922-3.735-9.3331-2.255-2.2575-5.32-3.5012-8.631-3.5012-7.051 0-12.368 5.5173-12.368 12.834-0.0003 3.504 1.3306 6.765 3.747 9.184 0.736 0.737 1.56 1.38 2.449 1.91 0.067 0.04 0.128 0.087 0.182 0.14 0.147 0.103 0.285 0.218 0.411 0.345 0.563 0.563 0.872 1.307 0.872 2.095 0 0.802-0.313 1.556-0.88 2.123-0.566 0.568-1.319 0.88-2.12 0.88-0.415 0-0.8342-0.095-1.2489-0.281-0.0745-0.02-0.1472-0.05-0.2169-0.09-1.4133-0.805-2.7125-1.797-3.8632-2.949-3.4917-3.495-5.4146-8.239-5.415-13.357 0.00044071-10.332 8.2774-18.739 18.451-18.739 4.844 0.00044118 9.435 1.9257 12.928 5.4229zm118.53 21.011c0 6.07-4.6 10.36-13.48 10.36-4.24 0-9.05-1.308-12.08-3.663-1.04-0.836-1.78-1.883-1.78-3.034 0-1.622 1.05-2.721 2.67-2.721 0.58 0 1.1 0.157 1.62 0.471 2.82 1.779 4.76 3.349 9.67 3.349 5.02 0 7-2.041 7-4.395 0-2.564-2.03-3.872-8.31-5.547-9.46-2.511-12.28-5.546-12.28-10.778 0-6.3836 5.49-9.7842 13.8-9.7842 1.88-0.00004 4.44 0.3141 6.69 0.9414 2.4 0.6803 5.44 2.1975 5.44 4.2909 0 1.4127-0.84 2.8774-2.62 2.8774-0.42 0-0.83-0.0525-1.25-0.2616-2.41-1.099-4.92-2.1975-8.21-2.1975-4.65 0-7.47 1.2555-7.47 3.9766 0 2.564 2.09 3.453 8.36 5.285 7.16 2.092 12.23 4.133 12.23 10.83zm-51.114 4.605c-7.109 0-11.447-5.651-11.447-12.296s4.338-12.296 11.447-12.296c7.104-0.0001 11.444 5.651 11.444 12.296s-4.34 12.296-11.444 12.296zm0-30.347c-10.244 0-17.876 7.9531-17.876 18.051s7.632 18.051 17.876 18.051 17.874-7.953 17.874-18.051-7.63-18.051-17.874-18.051v-0.00024zm-41.442 29.562h-6.115v-23.022l6.115-0.0002c7.213 0 11.29 4.7612 11.29 11.511 0 6.749-4.077 11.511-11.29 11.511zm0.313-28.934h-9.564c-1.777 0-3.241 1.4126-3.241 3.1914v28.411c0 1.779 1.464 3.244 3.241 3.244h9.564c10.611 0 17.353-7.691 17.353-17.423 0-9.7324-6.742-17.423-17.353-17.423v-0.0004z"/>
 </g>
</svg>